<?xml version="1.0" encoding="iso-8859-1"?>
<!-- Generator: Adobe Illustrator 19.0.0, SVG Export Plug-In . SVG Version: 6.00 Build 0)  -->
<svg version="1.1" id="Layer_1" xmlns="http://www.w3.org/2000/svg" xmlns:xlink="http://www.w3.org/1999/xlink" x="0px" y="0px"
	 viewBox="0 0 512.014 512.014" style="enable-background:new 0 0 512.014 512.014;" xml:space="preserve">
<g>
	<g>
		<g>
			<path d="M136.786,230.311c2.185,0,4.369-0.836,6.033-2.5l85.333-85.333c3.336-3.337,3.336-8.738,0-12.066
				c-3.337-3.336-8.738-3.336-12.066,0l-85.333,85.333c-3.337,3.328-3.337,8.73,0,12.066
				C132.417,229.475,134.602,230.311,136.786,230.311z"/>
			<path d="M185.315,471.079c-0.853,0.708-1.707,1.399-2.586,2.091c-40.644,31.812-98.85,28.237-135.415-8.32
				c-37.777-37.768-40.448-97.101-6.221-138.01c3.021-3.61,2.543-8.994-1.075-12.023c-3.61-3.029-8.994-2.543-12.024,1.075
				c-39.927,47.736-36.821,116.966,7.245,161.024c23.177,23.177,53.811,34.995,84.574,34.987c25.839,0,51.772-8.337,73.421-25.284
				c1.033-0.802,2.039-1.621,3.038-2.458c3.61-3.029,4.087-8.405,1.067-12.023C194.309,468.528,188.916,468.05,185.315,471.079z"/>
			<path d="M205.053,255.911c0,28.228,22.963,51.2,51.2,51.2c28.228,0,51.2-22.972,51.2-51.2c0-28.237-22.972-51.2-51.2-51.2
				C228.016,204.711,205.053,227.674,205.053,255.911z M256.253,221.778c18.816,0,34.133,15.309,34.133,34.133
				c0,18.816-15.317,34.133-34.133,34.133c-18.825,0-34.133-15.317-34.133-34.133C222.12,237.087,237.428,221.778,256.253,221.778z"
				/>
			<path d="M432.953,181.612c-3.336-3.337-8.738-3.337-12.066,0L401.32,201.17l-90.334-90.325l19.567-19.567
				c3.337-3.337,3.337-8.738,0-12.066l-25.6-25.6c-3.337-3.337-8.738-3.337-12.066,0l-51.2,51.2c-3.337,3.328-3.337,8.73,0,12.066
				l25.6,25.6c1.664,1.664,3.849,2.5,6.033,2.5c2.185,0,4.369-0.836,6.033-2.5l19.567-19.567l90.334,90.334l-19.567,19.567
				c-3.337,3.328-3.337,8.73,0,12.066l25.6,25.6c1.664,1.664,3.849,2.5,6.033,2.5c2.185,0,4.369-0.836,6.033-2.5l51.2-51.2
				c3.336-3.337,3.336-8.738,0-12.066L432.953,181.612z M273.32,124.37l-13.534-13.525l39.134-39.134l13.534,13.534L273.32,124.37z
				 M401.32,252.37l-13.534-13.525l39.134-39.134l13.534,13.534L401.32,252.37z"/>
			<path d="M477.258,34.898c-43.665-43.665-114.697-46.601-161.715-6.673c-3.593,3.055-4.028,8.439-0.981,12.032
				c3.055,3.593,8.448,4.028,12.032,0.981c40.277-34.21,101.171-31.701,138.598,5.726c37.257,37.257,39.91,97.98,6.05,138.24
				c-3.038,3.601-2.577,8.986,1.033,12.023c1.604,1.34,3.55,1.997,5.487,1.997c2.441,0,4.847-1.033,6.537-3.038
				C523.816,149.202,520.727,78.358,477.258,34.898z"/>
			<path d="M369.686,284.012l-85.333,85.333c-3.336,3.328-3.336,8.73,0,12.066c1.664,1.664,3.849,2.5,6.033,2.5
				c2.185,0,4.369-0.836,6.033-2.5l85.333-85.333c3.337-3.336,3.337-8.738,0-12.066
				C378.416,280.675,373.014,280.675,369.686,284.012z"/>
			<path d="M245.219,369.345c-3.337-3.337-8.738-3.337-12.066,0l-19.567,19.558l-90.334-90.325l19.567-19.567
				c3.337-3.336,3.337-8.738,0-12.066l-25.6-25.6c-3.337-3.337-8.738-3.337-12.066,0l-51.2,51.2c-3.337,3.328-3.337,8.73,0,12.066
				l25.6,25.6c1.664,1.664,3.849,2.5,6.033,2.5c2.185,0,4.369-0.836,6.033-2.5l19.567-19.567l90.334,90.334l-19.567,19.567
				c-3.337,3.328-3.337,8.73,0,12.066l25.6,25.6c1.664,1.664,3.849,2.5,6.033,2.5c2.185,0,4.369-0.836,6.033-2.5l51.2-51.2
				c3.337-3.336,3.337-8.738,0-12.066L245.219,369.345z M85.586,312.103l-13.534-13.525l39.134-39.134l13.534,13.534L85.586,312.103
				z M213.586,440.103l-13.534-13.525l39.134-39.134l13.534,13.534L213.586,440.103z"/>
		</g>
	</g>
</g>
<g>
</g>
<g>
</g>
<g>
</g>
<g>
</g>
<g>
</g>
<g>
</g>
<g>
</g>
<g>
</g>
<g>
</g>
<g>
</g>
<g>
</g>
<g>
</g>
<g>
</g>
<g>
</g>
<g>
</g>
</svg>
