<?xml version="1.0" encoding="utf-8"?>
<!-- Generator: Adobe Illustrator 18.1.1, SVG Export Plug-In . SVG Version: 6.00 Build 0)  -->
<svg version="1.1" xmlns="http://www.w3.org/2000/svg" xmlns:xlink="http://www.w3.org/1999/xlink" x="0px" y="0px"
	 viewBox="0 0 377 458.3" enable-background="new 0 0 377 458.3" xml:space="preserve">
<g id="Layer_1">
	<g>
		<g>
			<g>
				<g>
					<polyline fill="none" stroke="#ffffff" stroke-width="13.5823" stroke-miterlimit="10" points="203.7,226.3 224,226.3 
						224,205.9 					"/>
					
						<line fill="none" stroke="#ffffff" stroke-width="13.5823" stroke-miterlimit="10" stroke-dasharray="41.9077,41.9077" x1="224" y1="164" x2="224" y2="101.1"/>
					<polyline fill="none" stroke="#ffffff" stroke-width="13.5823" stroke-miterlimit="10" points="224,80.2 224,59.8 203.7,59.8 
											"/>
					
						<line fill="none" stroke="#ffffff" stroke-width="13.5823" stroke-miterlimit="10" stroke-dasharray="43.8376,43.8376" x1="159.8" y1="59.8" x2="94.1" y2="59.8"/>
					<polyline fill="none" stroke="#ffffff" stroke-width="13.5823" stroke-miterlimit="10" points="72.1,59.8 51.8,59.8 51.8,80.2 
											"/>
					
						<line fill="none" stroke="#ffffff" stroke-width="13.5823" stroke-miterlimit="10" stroke-dasharray="40.6597,40.6597" x1="51.8" y1="120.8" x2="51.8" y2="263.1"/>
					<polyline fill="none" stroke="#ffffff" stroke-width="13.5823" stroke-miterlimit="10" points="51.8,283.5 51.8,303.8 
						81.7,303.8 81.7,283.5 					"/>
					<polyline fill="none" stroke="#ffffff" stroke-width="13.5823" stroke-miterlimit="10" points="81.7,246.6 81.7,226.3 
						102.1,226.3 					"/>
					
						<line fill="none" stroke="#ffffff" stroke-width="13.5823" stroke-miterlimit="10" stroke-dasharray="33.8541,33.8541" x1="136" y1="226.3" x2="186.7" y2="226.3"/>
				</g>
			</g>
			<polygon fill="none" stroke="#ffffff" stroke-width="13.5823" stroke-miterlimit="10" points="325.8,398.5 325.8,226.3 
				224,226.3 81.7,226.3 81.7,398.5 			"/>
			<path fill="none" stroke="#ffffff" stroke-width="13.5823" stroke-miterlimit="10" d="M224,226.3"/>
		</g>
		<path fill="none" stroke="#ffffff" stroke-width="13.5823" stroke-miterlimit="10" d="M252.2,81.4c0,0,73.8,2.3,73.8,73.8"/>
		<polygon points="343.2,148.7 326,198.4 308.7,148.7 		"/>
	</g>
</g>
<g id="Layer_2">
</g>
<g id="Layer_3">
</g>
</svg>
