<?xml version="1.0" encoding="utf-8"?>
<!-- Svg Vector Icons : http://www.onlinewebfonts.com/icon -->
<!DOCTYPE svg PUBLIC "-//W3C//DTD SVG 1.1//EN" "http://www.w3.org/Graphics/SVG/1.1/DTD/svg11.dtd">
<svg version="1.1" xmlns="http://www.w3.org/2000/svg" xmlns:xlink="http://www.w3.org/1999/xlink" x="0px" y="0px" viewBox="0 0 1000 1000" enable-background="new 0 0 1000 1000" xml:space="preserve">
<metadata> Svg Vector Icons : http://www.onlinewebfonts.com/icon </metadata>
<g><g transform="translate(0.000000,511.000000) scale(0.100000,-0.100000)"><path d="M1907.3,4990c-212.7-39.8-451.3-133.2-630.2-240.6c-188.9-117.3-813.2-735.6-912.6-906.6C181.5,3532.7,100,3240.4,100,2890.5c0-340,57.7-576.6,202.8-850.9c77.5-143.2,228.6-351.9,314.1-427.5l39.8-37.8l-81.5-91.5c-43.7-49.7-93.4-121.3-109.4-159.1c-43.7-103.4-37.8-302.2,11.9-403.6c27.8-57.7,230.6-276.4,622.3-666c632.2-628.3,624.3-622.3,847-622.3c135.2,0,232.6,41.7,338,145.1l83.5,83.5l1192.9-1192.9l1190.9-1190.9l-97.4-103.4c-147.1-163-178.9-371.8-81.5-560.7c21.9-39.8,300.2-334,622.3-652.1c646.2-640.2,648.1-642.2,878.8-618.3c125.3,11.9,204.8,49.7,312.1,147.1l77.5,69.6l107.4-97.4c212.7-194.8,461.2-330,745.6-407.6c208.8-57.6,683.9-61.6,884.7-7.9c393.7,105.4,600.4,238.6,1008,646.2c435.4,433.4,578.6,670,664.1,1093.5c41.7,200.8,31.8,598.4-17.9,787.3c-77.5,288.3-214.7,544.7-393.6,735.6L9343-1362.2l73.5,81.5c39.8,45.7,89.5,119.3,111.3,165c47.7,105.4,49.7,294.3,2,395.7C9482.2-616.6,8368.8,500.7,8263.4,548.5c-89.5,41.8-240.6,47.7-355.9,15.9c-41.7-11.9-119.3-59.6-171-109.4c-51.7-47.7-101.4-87.5-111.3-87.5s-550.7,530.8-1198.9,1181l-1182.9,1183l91.5,95.4c101.4,111.3,143.1,210.7,143.1,353.9c0,202.8-8,214.7-632.2,837c-318.1,320.1-610.4,596.5-648.1,616.3c-49.7,25.8-113.3,37.8-218.7,37.8c-125.3,0-163-7.9-238.6-53.7c-49.7-27.8-111.3-75.5-137.2-103.4c-27.8-27.8-59.6-51.7-71.6-51.7c-11.9,0-57.7,35.8-99.4,81.5c-171,175-477.2,343.9-755.5,415.5C2465.9,5015.9,2110,5027.8,1907.3,4990z M2583.2,4640.1c184.9-47.7,349.9-131.2,493.1-248.5c173-141.2,6179.3-6155.4,6248.8-6258.8c101.4-145.1,198.8-367.8,232.6-528.8c65.6-306.2,0-685.9-165-974.2c-99.4-171-719.7-797.3-892.7-900.6c-461.2-276.4-984.1-276.4-1447.4-2c-95.4,57.7-799.2,749.6-3199,3147.3c-1693.9,1690-3119.5,3129.4-3167.2,3197c-355.9,493.1-355.9,1127.3,0,1622.3c113.3,161,646.2,682,787.3,771.4c196.8,125.3,383.7,190.9,646.2,224.7C2223.4,4701.7,2432.1,4679.9,2583.2,4640.1z M4569.4,3803.1c310.1-310.2,568.6-584.5,576.6-610.4c7.9-35.8-6-63.6-65.6-123.3l-77.5-77.5l-606.4,606.4l-606.4,608.4l83.5,77.5c45.7,43.7,95.4,79.5,109.4,79.5C3996.8,4363.8,4261.3,4111.3,4569.4,3803.1z M2040.5,29.5C1998.7-14.2,1949-50,1933.1-50c-47.7,0-1175,1135.2-1175,1183c0,19.9,33.8,71.6,73.6,113.3l75.5,75.5l606.4-606.4L2120,109.1L2040.5,29.5z M8675-304.5c318.1-318.1,572.6-586.5,572.6-606.4s-33.8-71.6-73.5-115.3l-75.6-79.5l-606.4,606.4l-604.4,608.4l77.5,79.5c41.7,43.7,91.5,79.5,107.4,79.5C8090.5,268.1,8360.9,11.6,8675-304.5z M6146-4056.2c-35.8-37.8-85.5-75.5-105.4-81.5c-31.8-9.9-151.1,99.4-604.4,550.7c-310.1,310.2-574.6,580.5-584.5,598.4c-15.9,27.8-2,53.7,65.6,127.2l83.5,89.5l606.4-606.4l606.4-606.4L6146-4056.2z"/><path d="M2434.1,3359.7c-135.2-57.7-159.1-238.6-43.7-336c167-141.2,407.6,51.7,308.2,242.5C2646.9,3365.7,2537.5,3403.5,2434.1,3359.7z"/><path d="M1790,2735.4c-131.2-131.2-39.8-340,147.1-340c75.6,0,97.4,9.9,141.2,61.6c117.3,137.2,29.8,336-147.1,336C1865.5,2793.1,1835.7,2781.2,1790,2735.4z"/><path d="M2963,2735.4c-77.5-77.5-79.5-190.9-6-278.3c111.3-133.2,345.9-47.7,345.9,127.2c0,93.4-25.8,141.2-99.4,178.9C3112.1,2811,3030.6,2801,2963,2735.4z"/><path d="M2424.2,2184.7c-186.9-101.4-119.3-375.8,93.4-375.8c208.8,0,282.3,260.5,105.4,367.8C2545.5,2224.5,2497.7,2226.5,2424.2,2184.7z"/><path d="M7500-1781.7c-99.4-93.4-99.4-220.7,2-306.2c200.8-169,451.3,113.3,264.4,300.2C7702.8-1724,7565.6-1720.1,7500-1781.7z"/><path d="M6937.3-2350.3c-105.4-67.6-125.3-204.8-45.7-300.2c67.6-79.5,149.1-97.4,244.6-49.7c123.3,59.6,147.1,230.6,47.7,330C7130.2-2318.5,7005-2306.6,6937.3-2350.3z"/><path d="M8110.4-2348.3c-113.3-59.6-131.2-206.8-37.8-310.2c47.7-53.7,71.6-65.6,141.2-65.6s93.5,11.9,141.2,65.6C8512-2481.5,8319.1-2235,8110.4-2348.3z"/><path d="M7541.8-2922.9c-77.5-33.8-131.3-143.2-113.3-230.6c17.9-81.5,115.3-157.1,202.8-157.1c87.4,0,204.8,107.4,204.8,186.9c0,83.5-55.6,171-129.2,202.8C7625.2-2887.1,7623.3-2887.1,7541.8-2922.9z"/></g></g>
</svg>